# xmcd
#
# Track frame offsets:
#	150
#	14147
#	26405
#	38445
#	50567
#	62885
#	75382
#	86602
#	98127
#	112397
#	125045
#	137117
#	149005
#	162795
#	174512
#	186205
#	200062
#	213802
#
# Disc length: 3026 seconds
#
# Revision: 0
# Processed by: cddbd v1.4PL0 Copyright (c) Steve Scherf et al.
# Submitted via: audiograbber 1.81.01
#
DISCID=070bd012
DTITLE=Johnny Otis - Slow Blues
DYEAR=1900
DGENRE=Blues
TTITLE0=Midnight in the barrelhouse
TTITLE1=I'm not falling in love with you
TTITLE2=Goin'to see my baby
TTITLE3=Dee's boogie
TTITLE4=Mambo boogie
TTITLE5=Lonely blues
TTITLE6=Ain't nothin' shakin'
TTITLE7=I'll never smile again
TTITLE8=Help me blues
TTITLE9=Double trouble hop
TTITLE10=Blow gene blow
TTITLE11=Heartache here i come
TTITLE12=Warnin' blues
TTITLE13=Gonna take a train
TTITLE14=Freight train boogie
TTITLE15=Slow blues
TTITLE16=Turn the lights down baby
TTITLE17=Strange woman
EXTD=
EXTT0=
EXTT1=
EXTT2=
EXTT3=
EXTT4=
EXTT5=
EXTT6=
EXTT7=
EXTT8=
EXTT9=
EXTT10=
EXTT11=
EXTT12=
EXTT13=
EXTT14=
EXTT15=
EXTT16=
EXTT17=
PLAYORDER=
